<svg id="visual" viewBox="0 0 900 600" width="900" height="600" xmlns="http://www.w3.org/2000/svg" xmlns:xlink="http://www.w3.org/1999/xlink" version="1.1"><rect x="0" y="0" width="900" height="600" fill="#002233"></rect><path d="M0 510L25 505.5C50 501 100 492 150 480.7C200 469.3 250 455.7 300 462.2C350 468.7 400 495.3 450 505.5C500 515.7 550 509.3 600 496.3C650 483.3 700 463.7 750 456C800 448.3 850 452.7 875 454.8L900 457L900 601L875 601C850 601 800 601 750 601C700 601 650 601 600 601C550 601 500 601 450 601C400 601 350 601 300 601C250 601 200 601 150 601C100 601 50 601 25 601L0 601Z" fill="#0066FF" stroke-linecap="round" stroke-linejoin="miter"></path></svg>